<svg xmlns="http://www.w3.org/2000/svg" viewBox="0 0 400 195.31"><path d="M357.48,5A37.559,37.559,0,0,1,395,42.52V190.31H42.52A37.571,37.571,0,0,1,5,152.79V5H357.48" style="fill:#fff"/><path d="M357.48,5A37.559,37.559,0,0,1,395,42.52V190.31H42.52A37.571,37.571,0,0,1,5,152.79V5H357.48m0-5H0V152.79a42.52,42.52,0,0,0,42.52,42.52H400V42.52A42.52,42.52,0,0,0,357.48,0Z" style="fill:#6e6e6e"/><path d="M74.81,39.25a25.55,25.55,0,0,0-.02,51.1h.02a25.55,25.55,0,1,0,0-51.1Zm-.1,36.5a10.95,10.95,0,1,1,11-10.9A10.95,10.95,0,0,1,74.71,75.75Z" style="fill:#cc1517"/><path d="M125.96,105c-33.611.523-33.646,50.529-.039,51.1C159.306,155.955,159.355,105.176,125.96,105Zm-.04,36.45h0v.05c-14.208.143-14.106-22.174.1-21.9C140.218,119.458,140.117,141.724,125.92,141.45Z" style="fill:#cc1517"/><path d="M138.76,39.3h7.21a5.48,5.48,0,0,1,4.49,8.63L66.92,153.68A5.449,5.449,0,0,1,62.45,156H54.83a5.47,5.47,0,0,1-4.49-8.62L134.29,41.62A5.461,5.461,0,0,1,138.76,39.3Z" style="fill:#cc1517"/><path d="M177.87,91.57V39.26h16.85a24.769,24.769,0,0,1,12.47,3.15,21.993,21.993,0,0,1,8.64,8.87A26.765,26.765,0,0,1,219,64.12v2.41a27,27,0,0,1-3,12.88,22.229,22.229,0,0,1-8.55,8.91,24.258,24.258,0,0,1-12.31,3.25ZM190.48,49V81.87h4.38A9.828,9.828,0,0,0,203.2,78q2.91-3.87,2.91-11.48V64.27c0-5.06-1-8.86-2.91-11.43S198.43,49,194.72,49Z" style="fill:#cc1517"/><path d="M256.93,69.37H237.1v12.5h23.42v9.7h-36V39.26h36.1V49H237.1V60h19.83Z" style="fill:#cc1517"/><path d="M296.31,81.8H279l-3,9.77H262.54l19.19-52.31h11.85l19.33,52.31H299.37Zm-14.26-9.74H293.3l-5.64-18.14Z" style="fill:#cc1517"/><path d="M328.79,81.87h21.95v9.7H316.17V39.26h12.62Z" style="fill:#cc1517"/><path d="M193,146.13h23.8v9.23H178V149l23.73-34.19H177.87v-9.26h38.67v6.15Z" style="fill:#6e6e6e"/><path d="M262,131.49a29.331,29.331,0,0,1-2.7,12.89,20,20,0,0,1-7.67,8.64,21.374,21.374,0,0,1-11.34,3,21.642,21.642,0,0,1-11.29-2.9,20,20,0,0,1-7.68-8.36,28.531,28.531,0,0,1-2.89-12.48v-2.8a29.491,29.491,0,0,1,2.69-12.91,19.827,19.827,0,0,1,7.69-8.63,22.749,22.749,0,0,1,22.69,0,20.34,20.34,0,0,1,7.71,8.57A28.646,28.646,0,0,1,262,129.2Zm-12.2-2.08q0-7.43-2.48-11.27a8,8,0,0,0-7.1-3.84q-9,0-9.54,13.54v3.65q0,7.32,2.43,11.25a7.931,7.931,0,0,0,7.21,3.94,7.839,7.839,0,0,0,7-3.87q2.46-3.851,2.5-11.11Z" style="fill:#6e6e6e"/><path d="M309.09,155.36H297.16l-17.65-31v31h-12V105.58h12l17.61,31v-31h12Z" style="fill:#6e6e6e"/><path d="M347.25,134.23H328.37v11.9h22.3v9.23h-34.3V105.58h34.37v9.26H328.37v10.5h18.88Z" style="fill:#6e6e6e"/></svg>