<svg version="1.1" id="Ebene_1" xmlns="http://www.w3.org/2000/svg" xmlns:xlink="http://www.w3.org/1999/xlink" x="0px" y="0px" viewBox="0 0 400 50" style="enable-background:new 0 0 400 50;" xml:space="preserve">
<style type="text/css">
	.st0{
        fill:#c00;
    }
</style>
<rect x="334.7" y="17.7" width="6" height="14.4"/>
<rect x="341.3" y="14.1" width="6.3" height="21.9"/>
<polygon class="st0" points="388.7,0 388.7,4.3 379,4.3 379,8.6 369.4,8.6 369.4,12.7 359.4,12.7 359.4,17 349.8,17 349.8,32.9 
	359.4,32.9 359.4,37.2 369.4,37.2 369.4,41.6 379,41.6 379,45.7 388.7,45.7 388.7,50 397,50 397,0 "/>
<polygon points="3,39.6 9.5,39.6 9.5,27.2 21.9,27.2 21.9,22.2 9.5,22.2 9.5,15.1 23.8,15.1 23.8,9.6 3,9.6 "/>
<path d="M51.6,13.5c-1.2-1.5-2.8-2.6-4.6-3.4c-4-1.6-8.4-1.6-12.4,0c-1.7,0.8-3.3,2-4.6,3.4c-1.3,1.4-2.3,3.1-2.9,5
	c-0.7,2-1,4.1-1.1,6.3c0,2.1,0.3,4.2,1.1,6.1c0.6,1.8,1.6,3.5,2.9,4.9c1.3,1.5,2.9,2.6,4.7,3.4c2,0.8,4.1,1.2,6.2,1.2
	c2.1,0.1,4.2-0.3,6.1-1.2c1.8-0.7,3.3-1.9,4.5-3.4c1.3-1.4,2.2-3.1,2.9-4.9c0.7-2,1-4,1.1-6.1c0-2.1-0.3-4.3-1.1-6.3
	C53.9,16.6,52.9,14.9,51.6,13.5z M48.6,28.5c-0.3,1.1-0.7,2.2-1.4,3.2c-0.7,1-1.5,1.7-2.6,2.3c-1.2,0.6-2.5,1-3.8,0.9
	c-1.3,0-2.6-0.3-3.8-0.9c-1-0.6-1.9-1.4-2.6-2.3c-0.6-1-1.1-2.1-1.4-3.2c-0.3-1.2-0.4-2.4-0.5-3.7c0-1.3,0.1-2.6,0.5-3.8
	c0.3-1.2,0.8-2.3,1.4-3.4c0.7-1,1.5-1.7,2.6-2.3c1.2-0.6,2.5-1,3.8-0.9c1.3,0,2.6,0.3,3.8,0.9c1,0.6,1.9,1.4,2.6,2.3
	c0.7,1,1.1,2.2,1.4,3.4c0.3,1.2,0.4,2.5,0.4,3.8C49,26,48.8,27.2,48.6,28.5L48.6,28.5z"/>
<polygon points="57.6,15.1 66.5,15.1 66.5,39.6 73,39.6 73,15.1 81.9,15.1 81.9,9.6 57.6,9.6 "/>
<path d="M109.3,13.5c-1.2-1.4-2.8-2.6-4.5-3.4c-4-1.6-8.4-1.6-12.4,0c-1.8,0.8-3.4,1.9-4.7,3.4c-1.3,1.4-2.3,3.1-2.9,5
	c-0.7,2-1,4.1-1.1,6.3c0,2.1,0.3,4.2,1.1,6.1c0.6,1.8,1.6,3.5,2.9,4.9c1.3,1.5,2.9,2.6,4.7,3.4c2,0.8,4.1,1.2,6.2,1.2
	c2.1,0.1,4.2-0.3,6.2-1.2c1.8-0.7,3.3-1.9,4.5-3.4c1.3-1.4,2.2-3.1,2.9-4.9c0.7-2,1-4,1.1-6.1c0-2.1-0.3-4.3-1.1-6.3
	C111.5,16.7,110.6,15,109.3,13.5z M106.2,28.5c-0.3,1.1-0.7,2.2-1.4,3.2c-0.7,1-1.5,1.7-2.6,2.3c-2.4,1.2-5.2,1.2-7.5,0
	c-1-0.6-1.9-1.4-2.6-2.3c-0.6-1-1.1-2.1-1.4-3.2c-0.3-1.2-0.4-2.4-0.4-3.7c0-1.3,0.1-2.6,0.4-3.8c0.3-1.2,0.8-2.3,1.4-3.4
	c0.7-1,1.5-1.7,2.6-2.3c2.4-1.2,5.2-1.2,7.5,0c1,0.6,1.9,1.4,2.6,2.3c0.7,1,1.1,2.2,1.4,3.4c0.3,1.3,0.4,2.5,0.4,3.8
	C106.6,26,106.5,27.2,106.2,28.5L106.2,28.5z"/>
<polygon points="135.6,26.8 150.1,26.8 150.1,21.6 135.6,21.6 135.6,15.1 151.3,15.1 151.3,9.6 129.1,9.6 129.1,39.6 151.6,39.6 
	151.6,34.1 135.6,34.1 "/>
<path d="M180.5,36.2c0-0.6-0.1-1.4-0.1-2c0-0.6,0-1.1-0.1-1.7c0-0.8-0.1-1.5-0.3-2.3c-0.1-0.8-0.4-1.5-0.8-2.1
	c-0.3-0.6-0.7-1.2-1.2-1.7c-0.6-0.5-1.3-0.8-2-1.1v-0.1c1.5-0.5,2.8-1.6,3.6-2.9c0.8-1.4,1.1-3,1.1-4.6c0-1.1-0.2-2.2-0.6-3.2
	c-0.4-1-1-1.9-1.8-2.6c-0.8-0.8-1.7-1.4-2.7-1.8c-1.2-0.4-2.4-0.7-3.6-0.6H156v30h6.5V27.8h6.5c1.7,0,2.9,0.3,3.5,1.1
	c0.8,1,1.2,2.1,1.4,3.4c0.2,1.3,0.3,2.5,0.3,3.8c0.1,1.1,0.3,2.3,0.6,3.4h6.5c-0.3-0.5-0.5-1-0.8-1.5
	C180.7,37.4,180.7,36.8,180.5,36.2z M173.1,22.2c-0.9,0.7-2.1,1.1-3.3,1.1h-7.1v-8.6h7.1c1.2-0.1,2.4,0.3,3.3,1.1
	c0.8,0.6,1.1,1.7,1.1,3.2S173.9,21.6,173.1,22.2z"/>
<polygon points="204.5,21.1 192.6,21.1 192.6,9.6 186,9.6 186,39.6 192.6,39.6 192.6,26.8 204.5,26.8 204.5,39.6 211.2,39.6 
	211.2,9.6 204.5,9.6 "/>
<path d="M224.9,9.6l-11.2,30h6.5l2.3-6.7h11.2l2.3,6.7h6.8l-11.2-30L224.9,9.6z M224.3,28l3.9-11h0.1l3.8,11H224.3z"/>
<path d="M269.8,36.2c0-0.6-0.1-1.4-0.1-2c0-0.6,0-1.1-0.1-1.7c0-0.8-0.1-1.5-0.3-2.3c-0.1-0.8-0.4-1.5-0.8-2.1
	c-0.3-0.6-0.7-1.2-1.2-1.7c-0.6-0.5-1.3-0.8-2-1.1v-0.1c1.5-0.5,2.8-1.6,3.6-2.9c0.8-1.4,1.2-3,1.1-4.6c0-1.1-0.2-2.2-0.6-3.2
	c-0.4-1-1-1.9-1.8-2.6c-0.8-0.8-1.7-1.4-2.7-1.8c-1.2-0.4-2.4-0.7-3.6-0.6h-16v30h6.5V27.8h6.5c1.7,0,2.9,0.3,3.5,1.1
	c0.8,1,1.2,2.1,1.4,3.4c0.2,1.3,0.3,2.5,0.3,3.8c0.1,1.1,0.3,2.3,0.6,3.4h6.5c-0.3-0.5-0.5-1-0.8-1.5
	C270,37.5,269.8,36.8,269.8,36.2z M262.3,22.2c-0.9,0.7-2.1,1.1-3.3,1.1h-7.2v-8.6h7.2c1.2-0.1,2.4,0.3,3.3,1.1
	c0.8,0.6,1.1,1.7,1.1,3.2S263,21.6,262.3,22.2z"/>
<path d="M297.6,13.3c-1.2-1.2-2.6-2.2-4.2-2.8c-1.7-0.6-3.5-0.9-5.3-0.9h-12.8v30h12.8c2,0.1,4-0.3,5.9-1.1c1.6-0.8,3.1-1.9,4.2-3.2
	c1.2-1.4,2-3,2.6-4.7c0.6-2,0.9-4,0.9-6.1c0.1-2.2-0.3-4.5-1.1-6.6C300,16.1,298.9,14.6,297.6,13.3z M294.4,29.4
	c-0.4,1-1,1.9-1.7,2.8c-0.7,0.7-1.5,1.2-2.4,1.5c-0.9,0.3-1.8,0.5-2.7,0.5h-5.9v-19h4.7c1.4,0,2.8,0.2,4.1,0.8c1,0.4,1.9,1.1,2.6,2
	c0.7,1,1.1,2.1,1.4,3.2c0.3,1.4,0.5,2.7,0.5,4.1C295,26.6,294.8,28,294.4,29.4L294.4,29.4z"/>
<polygon points="303.8,15.1 312.5,15.1 312.5,39.6 319.2,39.6 319.2,15.1 328.1,15.1 328.1,9.6 303.8,9.6 "/>
</svg>
